<?xml version="1.0" encoding="UTF-8" standalone="no"?>
<svg
   width="450"
   zoomAndPan="magnify"
   viewBox="0 0 450 450"
   height="450"
   preserveAspectRatio="xMidYMid"
   version="1.0"
   id="svg38"
   sodipodi:docname="logo.svg"
   inkscape:version="1.2 (dc2aeda, 2022-05-15)"
   inkscape:export-filename="../logo.png"
   inkscape:export-xdpi="96"
   inkscape:export-ydpi="96"
   xmlns:inkscape="http://www.inkscape.org/namespaces/inkscape"
   xmlns:sodipodi="http://sodipodi.sourceforge.net/DTD/sodipodi-0.dtd"
   xmlns="http://www.w3.org/2000/svg"
   xmlns:svg="http://www.w3.org/2000/svg">
  <sodipodi:namedview
     id="namedview40"
     pagecolor="#ffffff"
     bordercolor="#000000"
     borderopacity="0.25"
     inkscape:showpageshadow="2"
     inkscape:pageopacity="0.0"
     inkscape:pagecheckerboard="0"
     inkscape:deskcolor="#d1d1d1"
     showgrid="false"
     inkscape:zoom="1.0818549"
     inkscape:cx="42.057396"
     inkscape:cy="323.9806"
     inkscape:window-width="1390"
     inkscape:window-height="1027"
     inkscape:window-x="62"
     inkscape:window-y="25"
     inkscape:window-maximized="0"
     inkscape:current-layer="g572" />
  <defs
     id="defs16">
    <g
       id="g2" />
    <clipPath
       id="19ac9a5699">
      <path
         d="M 20.230469,21.515625 H 359 V 353.57422 H 20.230469 Z m 0,0"
         clip-rule="nonzero"
         id="path4" />
    </clipPath>
    <clipPath
       id="95f02f136f">
      <path
         d="M 80.230469,21.515625 H 298.75391 c 33.13671,0 60,26.863281 60,60 V 293.48437 c 0,33.13672 -26.86329,60 -60,60 H 80.230469 c -33.136719,0 -60,-26.86328 -60,-60 V 81.515625 c 0,-33.136719 26.863281,-60 60,-60"
         clip-rule="nonzero"
         id="path7" />
    </clipPath>
    <clipPath
       id="f0c7b8f4da">
      <path
         d="M 20.230469,21.519531 H 358.48047 V 353.76562 H 20.230469 Z m 0,0"
         clip-rule="nonzero"
         id="path10" />
    </clipPath>
    <clipPath
       id="23c4fcdee8">
      <path
         d="M 80.183594,21.519531 H 298.52734 c 33.11328,0 59.95313,26.882813 59.95313,60.046875 V 293.71484 c 0,33.16407 -26.83985,60.04688 -59.95313,60.04688 H 80.183594 c -33.113282,0 -59.953125,-26.88281 -59.953125,-60.04688 V 81.566406 c 0,-33.164062 26.839843,-60.046875 59.953125,-60.046875"
         clip-rule="nonzero"
         id="path13" />
    </clipPath>
  </defs>
  <g
     clip-path="url(#f0c7b8f4da)"
     id="g28"
     transform="matrix(0.99590094,0,0,0.99590094,-19.454289,-20.750381)"
     style="fill:#161bdb;fill-opacity:1">
    <g
       clip-path="url(#23c4fcdee8)"
       id="g26"
       style="fill:#0000ff;fill-opacity:1" />
  </g>
  <g
     id="g572"
     transform="matrix(1.3065391,0,0,1.3350791,4.0315124,3.2153282)">
    <g
       clip-path="url(#19ac9a5699)"
       id="g22"
       transform="matrix(0.80719493,0,0,0.80719493,16.252995,14.63142)"
       style="fill:#338fff;fill-opacity:1">
      <g
         clip-path="url(#95f02f136f)"
         id="g20"
         style="fill:#338fff;fill-opacity:1">
        <path
           fill="#ffffff"
           d="M 20.230469,21.515625 H 358.21875 V 353.57422 H 20.230469 Z m 0,0"
           fill-opacity="1"
           fill-rule="nonzero"
           id="path18"
           style="fill:#1d36d2;fill-opacity:1" />
      </g>
    </g>
    <path
       stroke-linecap="butt"
       fill="none"
       stroke-linejoin="miter"
       d="m 85.964992,31.16828 h 128.366438 78.41461 c 31.35971,0 56.77822,25.321376 56.77822,56.559165 V 287.55364 c 0,31.23779 -25.41851,56.55916 -56.77822,56.55916 H 85.964992 c -31.359719,0 -56.778221,-25.32137 -56.778221,-56.55916 V 87.727445 c 0,-31.237789 25.418502,-56.559165 56.778221,-56.559165"
       stroke="#338fff"
       stroke-width="25.5015"
       stroke-opacity="1"
       stroke-miterlimit="4"
       id="path24"
       style="fill:#0055ff;fill-opacity:1;stroke:#a3cefe;stroke-opacity:0.852941"
       sodipodi:nodetypes="ccsssssssc"
       transform="matrix(0.99590094,0,0,0.99590094,-19.454289,-20.750381)" />
    <g
       fill="#338fff"
       fill-opacity="1"
       id="g36"
       transform="translate(-20.372118,-29.302366)"
       style="fill:#f9f9f9">
      <g
         transform="translate(96.168992,274.26561)"
         id="g34"
         style="fill:#f9f9f9">
        <g
           id="g32"
           style="fill:#f9f9f9">
          <path
             d="M 80.703125,3.3125 C 67.460938,3.175781 55.910156,-0.425781 46.046875,-7.5 36.179688,-14.570312 28.523438,-24.316406 23.078125,-36.734375 17.628906,-49.148438 14.90625,-63.394531 14.90625,-79.46875 c 0,-15.925781 2.875,-30.00781 8.625,-42.25 5.757812,-12.25 13.707031,-21.85937 23.84375,-28.82812 C 57.519531,-157.51562 69.179688,-161 82.359375,-161 c 14.488281,0 26.093755,4.05859 34.812505,12.17188 8.72656,8.10546 15.60937,18.53906 20.64062,31.29687 h 0.10937 l 9,-41.39062 H 169.6875 L 151.15625,-79.46875 171.75,0 h -22.76563 l -9.71875,-40.140625 h -0.20312 c -5.38672,12.824219 -12.80469,23.308594 -22.25,31.453125 -9.44922,8.136719 -21.484375,12.132812 -36.109375,12 z m 48.937495,-82.78125 -0.0937,-0.40625 c -1.04296,-5.03125 -2.63281,-10.890625 -4.76562,-17.578125 -2.13672,-6.695315 -5,-13.218755 -8.59375,-19.562505 -3.58594,-6.34375 -8.15234,-11.60156 -13.70312,-15.78124 -5.554692,-4.17579 -12.261724,-6.26563 -20.125005,-6.26563 -8.417969,0 -15.871094,2.55469 -22.359375,7.65625 -6.480469,5.10547 -11.546875,12.17969 -15.203125,21.21875 -3.65625,9.03125 -5.484375,19.414062 -5.484375,31.140625 0,11.449219 1.722656,21.746094 5.171875,30.890625 3.445313,9.136719 8.273437,16.34375 14.484375,21.625 6.207031,5.273438 13.453125,7.90625 21.734375,7.90625 7.65625,0 14.3125,-2.117188 19.968755,-6.359375 5.65625,-4.238281 10.41406,-9.582031 14.28125,-16.03125 3.86328,-6.457031 6.98437,-13.113281 9.35937,-19.96875 2.38281,-6.863281 4.12891,-12.882813 5.23437,-18.0625 z m 0,0"
             id="path30"
             style="fill:#f9f9f9" />
        </g>
      </g>
    </g>
  </g>
</svg>
